<?xml version="1.0" encoding="UTF-8" standalone="no"?><!DOCTYPE svg PUBLIC "-//W3C//DTD SVG 1.1//EN" "http://www.w3.org/Graphics/SVG/1.1/DTD/svg11.dtd"><svg width="100%" height="100%" viewBox="0 0 1980 793" version="1.1" xmlns="http://www.w3.org/2000/svg" xmlns:xlink="http://www.w3.org/1999/xlink" xml:space="preserve" xmlns:serif="http://www.serif.com/" style="fill-rule:evenodd;clip-rule:evenodd;stroke-linecap:round;stroke-linejoin:round;stroke-miterlimit:1.5;"><g><path d="M993.125,505.472c6.664,0 10.535,5.402 8.638,12.057c-1.897,6.654 -8.848,12.057 -15.513,12.057c-6.664,-0 -10.535,-5.403 -8.638,-12.057c1.897,-6.655 8.848,-12.057 15.513,-12.057Z" style="fill:none;stroke:#fff;stroke-width:14.58px;"/><path d="M886.714,505.472c6.665,0 10.535,5.402 8.638,12.057c-1.897,6.654 -8.848,12.057 -15.513,12.057c-6.664,-0 -10.535,-5.403 -8.638,-12.057c1.897,-6.655 8.848,-12.057 15.513,-12.057Z" style="fill:none;stroke:#fff;stroke-width:14.58px;"/><path d="M840.183,252.664l41.009,0l-20.226,222.072l161.969,-0" style="fill:none;stroke:#fff;stroke-width:14.58px;"/><path d="M1090.06,324.026l-27.448,0.089c-4.025,0.013 -7.303,-3.243 -7.316,-7.268c-0.013,-4.024 3.244,-7.302 7.268,-7.315l40.747,-0.133c2.663,-0.008 5.118,1.435 6.406,3.765c1.288,2.331 1.203,5.178 -0.222,7.428l-69.034,109.03c-1.337,2.111 -3.662,3.391 -6.16,3.391l-166.735,0c-4.025,0 -7.292,-3.267 -7.292,-7.292c0,-4.024 3.267,-7.291 7.292,-7.291l162.721,-0l59.773,-94.404Z" style="fill:#fff;"/><path d="M920.415,316.27l-42.051,-0" style="fill:none;"/><path d="M920.415,308.978l-42.051,-0c-4.024,-0 -7.292,3.267 -7.292,7.292c0,4.024 3.268,7.291 7.292,7.291l42.051,0c4.024,0 7.292,-3.267 7.292,-7.291c-0,-4.025 -3.268,-7.292 -7.292,-7.292Z" style="fill:#fff;"/></g><g><g><path d="M1608.19,10.5c-13.538,-13.537 -35.521,-13.537 -49.058,0l-49.059,49.059c-13.538,13.538 -13.538,35.52 0,49.058l361.175,361.175c13.538,13.538 35.521,13.538 49.058,-0l49.059,-49.058c13.538,-13.539 13.538,-35.521 -0,-49.059l-361.175,-361.175Z" style="fill:#fff;stroke:#000;stroke-opacity:0;stroke-width:0.69px;"/><path d="M1510.07,683.79c-13.538,13.538 -13.538,35.52 -0,49.058l49.058,49.058c13.538,13.539 35.52,13.539 49.058,0l361.175,-361.174c13.538,-13.539 13.538,-35.521 0,-49.059l-49.058,-49.058c-13.538,-13.538 -35.52,-13.538 -49.058,0l-361.175,361.175Z" style="fill:#fff;stroke:#000;stroke-opacity:0;stroke-width:0.69px;"/></g><path d="M1774.59,372.695c0,0 25.498,21.266 0,46.816l23.296,-23.296l-23.296,-23.52Z" style="fill:#fff;"/></g><g><path d="M258.447,667.007c13.538,13.538 35.521,13.538 49.059,0l49.058,-49.058c13.538,-13.538 13.538,-35.52 -0,-49.058l-245.834,-245.834c-13.537,-13.538 -35.52,-13.538 -49.058,0l-49.058,49.059c-13.538,13.538 -13.538,35.52 0,49.058l245.833,245.833Z" style="fill:#00e165;"/><path d="M361.976,218.985c9.68,-9.68 6.547,-28.53 -6.991,-42.067l-49.058,-49.059c-13.538,-13.538 -32.388,-16.67 -42.067,-6.991l-258.238,258.238c-9.68,9.68 -6.547,28.53 6.991,42.068l49.058,49.058c13.538,13.538 32.388,16.67 42.067,6.991l258.238,-258.238Z" style="fill:#00e165;"/><path d="M207.381,420.152c-0,-0 -25.498,-21.266 -0,-46.816l-23.296,23.296l23.296,23.52Z" style="fill:#00e165;"/></g><g transform="matrix(0.203039,0,0,0.203039,-90.3317,219.013)"><g transform="matrix(1518.79,0,0,1518.79,2065.89,1301.66)"><path d="M0.164,-0.69l0.039,-0l-0.055,0.326c0.009,-0.01 0.019,-0.019 0.03,-0.029c0.053,-0.046 0.113,-0.069 0.178,-0.069c0.066,0 0.118,0.023 0.156,0.069c0.039,0.047 0.053,0.103 0.042,0.168c-0.011,0.065 -0.043,0.121 -0.097,0.168c-0.054,0.046 -0.114,0.069 -0.18,0.069c-0.065,0 -0.117,-0.023 -0.155,-0.07c-0.008,-0.009 -0.015,-0.018 -0.02,-0.028l-0.015,0.086l-0.039,0l0.116,-0.69Zm-0.032,0.425l-0.014,0.081c0.001,0.037 0.014,0.069 0.037,0.097c0.032,0.038 0.075,0.058 0.129,0.058c0.054,-0 0.104,-0.019 0.148,-0.057c0.045,-0.039 0.072,-0.085 0.081,-0.139c0.009,-0.054 -0.003,-0.1 -0.034,-0.138c-0.032,-0.039 -0.075,-0.058 -0.129,-0.058c-0.054,0 -0.104,0.019 -0.148,0.058c-0.034,0.028 -0.057,0.061 -0.07,0.098Z" style="fill:#fff;fill-rule:nonzero;"/></g><g transform="matrix(1518.79,0,0,1518.79,2904.63,1301.66)"><path d="M0.35,-0.462c0.065,0 0.117,0.023 0.156,0.069c0.038,0.047 0.051,0.103 0.04,0.168c-0.01,0.065 -0.043,0.121 -0.097,0.168c-0.053,0.046 -0.113,0.069 -0.179,0.069c-0.065,0 -0.117,-0.023 -0.155,-0.069c-0.039,-0.047 -0.053,-0.103 -0.042,-0.168c0.011,-0.065 0.043,-0.121 0.098,-0.168c0.054,-0.046 0.114,-0.069 0.179,-0.069Zm-0.007,0.041c-0.054,0 -0.104,0.019 -0.148,0.058c-0.045,0.038 -0.072,0.084 -0.081,0.138c-0.009,0.054 0.003,0.1 0.034,0.139c0.032,0.038 0.075,0.057 0.129,0.057c0.054,-0 0.104,-0.019 0.148,-0.057c0.045,-0.039 0.072,-0.085 0.08,-0.139c0.009,-0.054 -0.002,-0.1 -0.034,-0.138c-0.031,-0.039 -0.074,-0.058 -0.128,-0.058Z" style="fill:#fff;fill-rule:nonzero;"/></g><g transform="matrix(1518.79,0,0,1518.79,3730.77,1301.66)"><path d="M0.35,-0.462c0.065,0 0.117,0.023 0.156,0.069c0.038,0.047 0.051,0.103 0.04,0.168c-0.01,0.065 -0.043,0.121 -0.097,0.168c-0.053,0.046 -0.113,0.069 -0.179,0.069c-0.065,0 -0.117,-0.023 -0.155,-0.069c-0.039,-0.047 -0.053,-0.103 -0.042,-0.168c0.011,-0.065 0.043,-0.121 0.098,-0.168c0.054,-0.046 0.114,-0.069 0.179,-0.069Zm-0.007,0.041c-0.054,0 -0.104,0.019 -0.148,0.058c-0.045,0.038 -0.072,0.084 -0.081,0.138c-0.009,0.054 0.003,0.1 0.034,0.139c0.032,0.038 0.075,0.057 0.129,0.057c0.054,-0 0.104,-0.019 0.148,-0.057c0.045,-0.039 0.072,-0.085 0.08,-0.139c0.009,-0.054 -0.002,-0.1 -0.034,-0.138c-0.031,-0.039 -0.074,-0.058 -0.128,-0.058Z" style="fill:#fff;fill-rule:nonzero;"/></g><g transform="matrix(1518.79,0,0,1518.79,5687.1,1301.66)"><path d="M0.504,-0l-0.039,-0l0.015,-0.086c-0.009,0.01 -0.019,0.019 -0.029,0.028c-0.054,0.047 -0.114,0.07 -0.18,0.07c-0.065,0 -0.117,-0.023 -0.156,-0.069c-0.038,-0.047 -0.052,-0.103 -0.041,-0.168c0.011,-0.065 0.043,-0.121 0.098,-0.168c0.054,-0.046 0.113,-0.069 0.179,-0.069c0.065,0 0.117,0.023 0.156,0.069c0.007,0.01 0.014,0.019 0.019,0.029l0.011,-0.06l0.039,0l-0.072,0.424Zm-0.007,-0.187l0.013,-0.076c-0.001,-0.038 -0.014,-0.072 -0.037,-0.1c-0.032,-0.039 -0.075,-0.058 -0.129,-0.058c-0.054,0 -0.104,0.019 -0.148,0.058c-0.045,0.038 -0.072,0.084 -0.081,0.138c-0.009,0.054 0.003,0.1 0.034,0.139c0.032,0.038 0.075,0.057 0.129,0.057c0.054,-0 0.104,-0.02 0.148,-0.058c0.034,-0.029 0.057,-0.062 0.071,-0.1Z" style="fill:#fff;fill-rule:nonzero;"/></g><g transform="matrix(1723.81,0,0,1723.81,6519.17,1301.66)"><path d="M0.305,-0.364l-0.197,-0l0.014,-0.076l0.338,-0l-0.274,0.363l0.212,0l-0.013,0.077l-0.355,0l0.275,-0.364Z" style="fill:#00e165;fill-rule:nonzero;"/></g><g transform="matrix(1518.79,0,0,1518.79,7234.62,1301.66)"><path d="M0.374,-0.483c0.071,0 0.126,0.025 0.166,0.073c0.04,0.049 0.054,0.107 0.042,0.175c-0.012,0.066 -0.046,0.124 -0.103,0.173c-0.057,0.049 -0.122,0.074 -0.193,0.074c-0.071,-0 -0.126,-0.025 -0.166,-0.074c-0.041,-0.049 -0.055,-0.107 -0.043,-0.173c0.012,-0.068 0.047,-0.126 0.104,-0.175c0.058,-0.048 0.122,-0.073 0.193,-0.073Zm-0.015,0.078c-0.044,0 -0.085,0.016 -0.122,0.049c-0.038,0.033 -0.062,0.073 -0.07,0.121c-0.008,0.047 0.001,0.087 0.027,0.119c0.027,0.033 0.062,0.049 0.106,0.049c0.043,-0 0.084,-0.016 0.122,-0.049c0.038,-0.032 0.062,-0.072 0.07,-0.119c0.009,-0.048 -0,-0.088 -0.027,-0.121c-0.027,-0.033 -0.062,-0.049 -0.106,-0.049Z" style="fill:#00e165;fill-rule:nonzero;"/></g><g transform="matrix(1518.79,0,0,1518.79,8108.96,1301.66)"><path d="M0.195,-0.333l-0.058,0.333l-0.089,-0l0.079,-0.446l0.088,-0c0.018,-0.017 0.051,-0.025 0.098,-0.025c0.056,0 0.098,0.018 0.127,0.052c0.028,0.035 0.038,0.077 0.03,0.127l-0.052,0.292l-0.087,0l0.05,-0.289c0.006,-0.03 0,-0.055 -0.017,-0.075c-0.017,-0.02 -0.039,-0.03 -0.065,-0.03c-0.026,-0 -0.051,0.009 -0.074,0.028c-0.013,0.012 -0.023,0.023 -0.03,0.033Z" style="fill:#00e165;fill-rule:nonzero;"/></g></g><path d="M956.192,306.899l69.623,0c-5.258,-13.929 -16.953,-20.894 -35.085,-20.894c-18.21,-0 -29.722,6.965 -34.538,20.894Zm-3.433,17.749l-0.049,0.337c0.166,10.934 4.146,20.108 11.941,27.522c7.794,7.415 16.921,11.122 27.382,11.122c10.383,-0 19.431,-3.782 27.143,-11.346c1.109,-1.049 3.156,-3.408 6.144,-7.077l19.941,6.74c-2.841,4.793 -6.181,9.024 -10.021,12.694c-11.584,11.458 -25.862,17.187 -42.831,17.187c-16.815,0 -31.151,-5.635 -43.008,-16.906c-11.856,-11.271 -17.921,-24.583 -18.194,-39.936c-0.225,-15.502 5.4,-28.87 16.874,-40.103c11.475,-11.234 25.619,-16.851 42.434,-16.851c16.97,0 31.433,5.692 43.39,17.075c10.263,9.886 15.565,23.066 15.907,39.542l-97.053,0Z" style="fill:#fff;fill-rule:nonzero;"/></svg>