<?xml version="1.0" encoding="UTF-8" standalone="no"?><!DOCTYPE svg PUBLIC "-//W3C//DTD SVG 1.1//EN" "http://www.w3.org/Graphics/SVG/1.1/DTD/svg11.dtd"><svg width="100%" height="100%" viewBox="0 0 181 184" version="1.1" xmlns="http://www.w3.org/2000/svg" xmlns:xlink="http://www.w3.org/1999/xlink" xml:space="preserve" xmlns:serif="http://www.serif.com/" style="fill-rule:evenodd;clip-rule:evenodd;stroke-linecap:round;stroke-linejoin:round;stroke-miterlimit:1.5;"><g><path d="M94.256,114.101c1.218,-0 1.926,0.988 1.579,2.205c-0.346,1.217 -1.618,2.205 -2.837,2.205c-1.219,0 -1.927,-0.988 -1.58,-2.205c0.347,-1.217 1.619,-2.205 2.838,-2.205Z" style="fill:none;stroke:#fff;stroke-width:3.5px;"/><path d="M74.793,114.101c1.219,-0 1.927,0.988 1.58,2.205c-0.347,1.217 -1.618,2.205 -2.837,2.205c-1.219,0 -1.927,-0.988 -1.58,-2.205c0.347,-1.217 1.618,-2.205 2.837,-2.205Z" style="fill:none;stroke:#fff;stroke-width:3.5px;"/><path d="M66.283,67.863l7.5,0l-3.699,40.616l29.624,0" style="fill:none;stroke:#fff;stroke-width:3.5px;"/><path d="M111.226,81.334l-4.261,0.014c-0.966,0.003 -1.753,-0.779 -1.756,-1.745c-0.003,-0.965 0.779,-1.752 1.744,-1.755l7.453,-0.024c0.639,-0.003 1.228,0.344 1.537,0.903c0.309,0.559 0.289,1.243 -0.053,1.783l-12.626,19.941c-0.321,0.507 -0.879,0.814 -1.478,0.814l-30.496,-0c-0.965,-0 -1.75,-0.784 -1.75,-1.75c0,-0.966 0.785,-1.75 1.75,-1.75l29.532,-0l10.404,-16.431Z" style="fill:#fff;"/><path d="M80.957,79.496l-7.691,0" style="fill:none;"/><path d="M80.957,77.746l-7.691,0c-0.966,0 -1.75,0.785 -1.75,1.75c0,0.966 0.784,1.75 1.75,1.75l7.691,0c0.966,0 1.75,-0.784 1.75,-1.75c0,-0.965 -0.784,-1.75 -1.75,-1.75Z" style="fill:#fff;"/></g><g><g><path d="M94.222,2.432c-3.136,-3.136 -8.228,-3.136 -11.364,0l-11.363,11.364c-3.136,3.136 -3.136,8.227 -0,11.363l83.659,83.66c3.136,3.135 8.228,3.135 11.364,-0l11.363,-11.364c3.136,-3.136 3.136,-8.227 0,-11.363l-83.659,-83.66Z" style="fill:#fff;stroke:#000;stroke-opacity:0;stroke-width:0.16px;"/><path d="M71.495,158.387c-3.136,3.136 -3.136,8.228 -0,11.364l11.363,11.363c3.136,3.136 8.228,3.136 11.364,0l83.659,-83.659c3.136,-3.136 3.136,-8.228 0,-11.364l-11.363,-11.363c-3.136,-3.136 -8.228,-3.136 -11.364,-0l-83.659,83.659Z" style="fill:#fff;stroke:#000;stroke-opacity:0;stroke-width:0.16px;"/></g><path d="M132.767,86.328c-0,-0 5.906,4.926 -0,10.844l5.396,-5.396l-5.396,-5.448Z" style="fill:#fff;"/></g><g><path d="M47.276,141.262c2.477,2.476 6.498,2.476 8.974,-0l8.974,-8.974c2.477,-2.477 2.477,-6.498 0,-8.974l-44.969,-44.969c-2.476,-2.477 -6.497,-2.477 -8.974,-0l-8.974,8.974c-2.476,2.476 -2.476,6.497 0,8.974l44.969,44.969Z" style="fill:#00e165;"/><path d="M66.214,59.307c1.771,-1.77 1.198,-5.218 -1.278,-7.695l-8.974,-8.974c-2.477,-2.476 -5.925,-3.049 -7.695,-1.279l-47.239,47.239c-1.77,1.77 -1.197,5.218 1.279,7.695l8.974,8.974c2.477,2.476 5.925,3.049 7.695,1.279l47.238,-47.239Z" style="fill:#00e165;"/><path d="M37.935,96.106c0,-0 -4.664,-3.89 0,-8.564l-4.261,4.262l4.261,4.302Z" style="fill:#00e165;"/></g><path d="M87.501,77.783l12.733,-0c-0.961,-2.548 -3.1,-3.822 -6.417,-3.822c-3.33,0 -5.436,1.274 -6.316,3.822Zm-0.628,3.246l-0.009,0.062c0.03,1.999 0.758,3.677 2.184,5.033c1.425,1.356 3.095,2.034 5.008,2.034c1.899,0 3.554,-0.691 4.964,-2.075c0.203,-0.192 0.577,-0.623 1.124,-1.294l3.647,1.233c-0.519,0.876 -1.13,1.65 -1.833,2.321c-2.118,2.096 -4.73,3.144 -7.833,3.144c-3.076,-0 -5.698,-1.031 -7.866,-3.092c-2.169,-2.062 -3.278,-4.497 -3.328,-7.304c-0.041,-2.836 0.988,-5.281 3.086,-7.335c2.099,-2.055 4.686,-3.082 7.761,-3.082c3.104,-0 5.749,1.041 7.936,3.123c1.877,1.808 2.847,4.219 2.909,7.232l-17.75,-0Z" style="fill:#fff;fill-rule:nonzero;"/></svg>